<svg width="389" height="501" viewBox="0 0 389 501" fill="none" xmlns="http://www.w3.org/2000/svg">
<path fill-rule="evenodd" clip-rule="evenodd" d="M16.7263 340.81V348.806C20.2363 383.885 30.0669 414.371 53.2516 441.073C63.7358 453.148 73.6439 462.41 86.5108 471.798C93.4304 476.846 97.853 480.331 105.415 484.803C108.969 486.904 114.646 487.845 115.681 482.501C116.381 478.882 111.599 476.251 109.176 473.702C104.726 469.022 97.7927 461.761 94.2936 456.546C92.079 453.244 90.2933 449.716 88.2185 446.564C85.9404 443.104 84.8322 439.364 82.7205 436.005C74.4406 422.834 71.8447 396.793 73.6798 381.559C74.1738 377.458 75.2637 372.035 76.2876 368.023C77.312 364.007 81.9644 362.976 85.528 361.304C92.7472 357.917 99.9445 354.476 107.151 351.061C111.455 349.02 149.689 331.354 149.943 330.524L91.8533 333.29C100.5 322.325 108.99 309.332 121.345 302.274C123.647 300.96 127.913 297.844 130.309 296.187C133.029 294.305 134.593 291.367 138.042 288.842C144.441 284.157 148.445 280.488 153.982 274.638C158.942 269.396 164.224 264.88 168.885 259.369C174.445 252.794 177.044 249.126 181.328 241.576C184.878 235.318 188.911 228.272 191.691 221.655C192.755 219.121 192.373 193.563 191.801 192.892C188.578 197.257 186.537 201.781 183.591 206.259C179.965 211.77 178.296 213.348 174.089 218.124C159.757 234.393 140.771 245.087 120.231 249.71C109.648 252.092 93.7029 252.432 83.0918 250.22C76.6089 248.869 72.6637 247.506 66.4949 245.552C56.5343 242.396 60.5222 241.889 53.9687 249.055C48.9449 254.548 40.0035 267.705 36.3641 274.35C23.5518 297.741 19.5369 314.272 16.7268 340.812L16.7263 340.81Z" fill="#FEFEFE"/>
<path fill-rule="evenodd" clip-rule="evenodd" d="M373.274 347.135V341.266C370.799 315.623 365.985 297.046 353.659 274.51C350.078 267.962 341.036 254.549 336.081 249.184C329.538 242.099 333.621 242.295 323.637 245.49C317.448 247.471 313.506 248.793 307.026 250.179C296.386 252.455 280.39 252.085 269.761 249.725C258.155 247.148 249.516 243.578 239.206 237.641C227.882 231.121 213.666 217.385 206.303 206.183C203.345 201.683 201.348 197.199 198.077 192.828C197.634 193.362 198.198 220.145 198.672 222.222C199.506 225.882 206.665 238.188 208.9 242.086C213.242 249.656 215.794 253.091 221.34 259.696C224.148 263.039 225.212 264.729 228.852 267.271C231.464 269.095 238.932 278.649 243.78 282.329C246.589 284.461 249.571 287.169 252.146 289.021C255.65 291.542 256.899 294.338 259.78 296.281C262.327 297.997 266.344 301.015 268.752 302.362C274.817 305.758 287.141 318.264 291.758 324.408C293.914 327.277 295.915 330.605 298.096 333.269L239.952 330.595C239.945 330.833 279.569 349.523 283.203 351.254C290.402 354.683 297.643 358.047 304.829 361.5C308.511 363.27 312.759 363.949 313.774 368.526C314.751 372.925 315.875 377.829 316.343 382.291C320.226 419.385 304.82 448.615 280.256 474.237C277.399 477.218 272.994 478.91 274.534 483.593C276.143 488.488 282.405 486.055 285.358 484.31C292.794 479.914 297.41 476.38 304.198 471.219C316.738 461.686 327.276 452.546 337.396 440.247C360.501 412.167 370.222 383.525 373.274 347.134V347.135Z" fill="#FEFEFE"/>
<path fill-rule="evenodd" clip-rule="evenodd" d="M217.777 447.792C217.746 447.882 201.144 466.956 199.662 468.522C195.606 472.811 195.031 477.475 190.469 471.364C187.953 467.994 184.237 464.169 181.406 460.905C169.895 447.63 169.754 452.128 169.786 433.463C169.796 427.979 169.264 397.05 170.244 394.38C170.943 392.476 185.669 376.003 188.127 373.388C192.273 368.975 192.652 364.558 197.246 370.68C199.768 374.04 203.482 377.882 206.315 381.129C217.814 394.308 217.948 389.985 217.914 408.47C217.906 413.025 218.283 446.337 217.777 447.792H217.777ZM196.286 349.51C193.959 335.942 196.921 320.636 199.577 307.257C204.008 284.941 212.307 249.17 191.03 232.792C197.649 284.379 180.869 302.606 159.778 344.679C146.581 371.007 145.091 390.497 157.147 417.15C158.504 420.149 163.295 428.307 155.274 422.451C151.422 419.64 149.006 417.253 146.316 413.239C145.64 412.23 139.369 401.779 139.308 402.115C139.049 427.314 143.749 459.335 164.238 476.094C185.813 493.741 215.022 486.3 232.769 466.886C252.051 445.794 254.12 417.076 244.731 390.723C232.192 355.53 221.759 356.807 224.003 313.408C215.472 318.7 209.151 330.34 208.607 340.473C208.261 346.923 209.197 353.48 210.623 359.751C211.063 361.689 215.056 375.738 214.873 376.229C212.947 378.444 204.225 368.043 202.991 366.28C199.457 361.235 197.332 355.612 196.286 349.511V349.51Z" fill="#EB3237"/>
<path fill-rule="evenodd" clip-rule="evenodd" d="M74.2056 196.005C74.0449 194.501 70.1064 190.999 69.8204 186.136C69.6712 183.599 71.7064 176.781 73.3403 175.5C74.3283 176.608 74.9091 180.047 75.9502 181.902C76.9621 183.705 78.3089 185.489 79.5813 187.114C82.355 190.653 84.9274 193.532 86.8483 197.728C91.8242 208.599 82.6379 223.715 80.0753 223.493C79.7373 221.021 80.6239 217.397 79.9885 213.725C79.5226 211.028 78.5044 208.458 76.8919 206.271C74.1998 202.619 68.043 198.299 69.3789 192.917L74.2045 196.005H74.2056ZM111.305 186.915C114.805 187.419 117.178 188.296 119.156 191.422C120.333 193.281 122.518 199.57 123.57 196.148C130.146 174.769 105.36 164.174 109.77 139.418C113.545 146.042 111.975 147.851 117.86 155.111C121.509 159.613 125.317 163.302 129.197 167.517C138.315 177.426 142.241 188.923 141.644 202.567C141.352 209.226 135.647 236.689 125.871 233.594C121.936 232.348 116.456 224.916 114.345 221.326C112.839 218.764 111.603 215.979 110.72 213.126C110.509 212.442 108.463 202.147 109.532 202.736C110.729 203.764 113.086 213.274 118.75 213.291C119.411 211.221 118.16 200.241 117.451 197.665C115.957 192.232 114.016 191.112 111.304 186.915L111.305 186.915ZM106.567 196.201C95.0019 193.299 86.8296 182.518 83.5676 171.277C80.2199 159.741 79.5964 144.635 66.4487 140.13C74.0366 172.498 35.9726 193.997 61.8966 224.074C80.0374 245.12 118.235 250.462 141.595 236.4C170.841 218.795 160.292 184.453 146.565 160.137C140.58 149.538 131.666 135.28 128.823 123.575C124.994 107.808 132.882 95.6776 140.922 83.1868C121.843 88.4255 99.4864 108.983 91.1846 127.299C79.1149 153.928 89.297 175.905 106.567 196.201V196.201Z" fill="#FEFEFE"/>
<path fill-rule="evenodd" clip-rule="evenodd" d="M321.436 192.77C322.822 199.97 313.779 203.953 311.511 211.15C311.038 212.653 310.389 223.356 310.355 223.349C308.627 223.01 305.331 216.753 304.65 215.039C301.354 206.741 301.813 200.22 306.809 192.915C308.704 190.143 311.016 187.629 312.988 184.904C314.642 182.618 317.202 176.007 317.694 175.584C319.45 179.232 321.392 181.976 321.06 186.35C320.671 191.463 317.867 192.58 316.617 196.031L316.992 196.524L321.436 192.77H321.436ZM281.445 202.461C281.999 211.38 278.251 220.127 272.723 226.887C265.297 235.968 260.867 236.387 255.13 225.409C246.781 209.433 246.928 187.727 257.377 172.764C261.731 166.528 268.147 161.212 273.043 155.105C276.31 151.029 277.466 149.743 278.99 144.526C281.898 134.572 281.935 144.919 281.529 148.582C280.04 162.041 269.576 172.23 266.803 183.715C266.01 186.997 265.786 195.14 268.05 197.683C271.897 192.654 271.855 187.483 279.583 186.926C277.196 191.232 275.03 191.776 273.409 197.765C272.719 200.313 271.468 211.274 272.148 213.291C276.53 213.38 279.993 206.038 281.445 202.46L281.445 202.461ZM324.449 140.139C311.431 144.337 310.591 159.981 307.318 171.263C304.041 182.56 295.965 193.179 284.328 196.205C301.462 175.96 311.891 153.869 299.706 127.319C291.268 108.934 269.19 88.4698 249.97 83.1916C258.005 95.7668 265.894 107.696 262.063 123.57C259.252 135.222 250.291 149.566 244.335 160.127C230.576 184.523 220.028 218.879 249.422 236.479C272.849 250.505 310.96 245.062 329.084 223.965C354.836 193.986 316.84 172.402 324.449 140.14V140.139Z" fill="#FEFEFE"/>
<path fill-rule="evenodd" clip-rule="evenodd" d="M166.727 179.797C161.931 171.603 158.654 167.819 156.612 157.864C154.675 148.416 156.083 138.943 159.379 130.002C163.436 118.997 174.619 96.9061 184.509 90.8226C181.019 116.678 192.879 122.111 211.636 133.82C218.771 138.274 225.367 144.271 229.063 152.087C234.122 162.785 231.783 170.549 226.885 180.397C232.056 177.761 239.342 167.982 241.328 162.453C244.624 153.282 243.755 144.252 239.77 135.518C236.478 128.3 231.352 122.313 227.029 115.786C221.133 106.887 219.829 101.603 226.985 93.0959C215.615 95.8932 207.398 100.791 205.55 113.218C205.357 114.514 204.668 122.762 202.634 117.546C196.712 102.364 209.442 89.1444 214.211 75.7559C219.753 60.2026 213.772 46.082 204.656 33.6488C200.586 28.0985 196.027 23.7291 191.935 18.5581C190.739 17.0463 187.488 11.7489 186.477 16.1728C185.609 19.9685 186.075 25.1347 185.388 29.3861C181.453 53.7205 152.974 76.2848 143.97 99.4617C133.187 127.218 142.286 162.764 166.728 179.797L166.727 179.797Z" fill="#FEFEFE"/>
<path fill-rule="evenodd" clip-rule="evenodd" d="M172.981 140.355C173.148 143.84 173.936 147.827 175.111 151.107C176.79 155.791 178.344 155.003 173.845 158.856C168.873 163.116 176.242 171.508 179.646 174.646C191.264 185.354 205.653 182.419 210.121 166.395C215.331 147.708 204.327 144.486 191.583 136.123C186.399 132.721 181.695 129.016 178.372 123.618C174.69 117.639 172.886 138.378 172.981 140.355V140.355Z" fill="#EB3237" stroke="#0D0000" stroke-width="0.05556" stroke-miterlimit="2.61313"/>
<path fill-rule="evenodd" clip-rule="evenodd" d="M281.445 202.461C279.993 206.039 276.53 213.381 272.149 213.292C271.468 211.274 272.719 200.314 273.409 197.767C275.031 191.777 277.197 191.233 279.583 186.927C271.855 187.484 271.897 192.655 268.051 197.684C265.786 195.141 266.011 186.998 266.803 183.716C269.577 172.232 280.041 162.042 281.53 148.583C281.935 144.921 281.898 134.573 278.991 144.527C277.467 149.744 276.311 151.03 273.043 155.106C268.147 161.213 261.731 166.529 257.377 172.765C246.929 187.728 246.781 209.434 255.131 225.411C260.867 236.388 265.298 235.969 272.724 226.888C278.252 220.128 282 211.381 281.446 202.463L281.445 202.461Z" fill="#EB3237" stroke="#0D0000" stroke-width="0.05556" stroke-miterlimit="2.61313"/>
<path fill-rule="evenodd" clip-rule="evenodd" d="M111.306 186.915C114.017 191.111 115.958 192.232 117.453 197.664C118.161 200.241 119.412 211.221 118.752 213.291C113.087 213.274 110.73 203.764 109.533 202.735C108.464 202.147 110.51 212.441 110.722 213.126C111.605 215.979 112.84 218.763 114.347 221.326C116.457 224.916 121.938 232.348 125.872 233.593C135.648 236.688 141.354 209.226 141.645 202.566C142.242 188.923 138.317 177.426 129.198 167.517C125.318 163.301 121.51 159.612 117.861 155.111C111.976 147.851 113.546 146.041 109.772 139.417C105.362 164.173 130.148 174.768 123.571 196.148C122.519 199.569 120.334 193.281 119.157 191.421C117.179 188.295 114.806 187.419 111.306 186.914L111.306 186.915Z" fill="#EB3237" stroke="#0D0000" stroke-width="0.05556" stroke-miterlimit="2.61313"/>
<path fill-rule="evenodd" clip-rule="evenodd" d="M172.981 140.355C172.886 138.378 174.691 117.639 178.372 123.618C181.695 129.016 186.399 132.721 191.583 136.123C204.327 144.486 215.331 147.708 210.121 166.395C205.652 182.419 191.264 185.354 179.646 174.646C176.242 171.509 168.873 163.117 173.846 158.856C178.344 155.003 176.789 155.791 175.111 151.107C173.936 147.826 173.148 143.84 172.981 140.355V140.355ZM163.247 147.446C162.508 150.447 165.6 167.019 167.281 170.381C177.14 190.105 205.678 196.987 215.543 172.899C222.217 156.604 218.833 144.839 204.503 135.544C199.065 132.017 193.173 128.973 188.431 124.457C182.051 118.38 181.947 114.19 179.107 106.42C174.288 111.062 169.399 119.689 167.473 126.173C165.578 132.555 165.106 140.698 166.602 147.249C167.556 151.426 164.724 147.128 163.247 147.447V147.446Z" fill="#FEFEFE"/>
<path fill-rule="evenodd" clip-rule="evenodd" d="M191.031 232.793C212.307 249.171 204.008 284.941 199.577 307.258C196.921 320.636 193.959 335.943 196.286 349.511C197.332 355.613 199.458 361.236 202.991 366.28C204.225 368.043 212.947 378.444 214.873 376.229C215.057 375.739 211.063 361.689 210.623 359.751C209.197 353.479 208.261 346.923 208.607 340.473C209.151 330.34 215.473 318.701 224.003 313.408C221.759 356.808 232.193 355.53 244.731 390.723C254.121 417.076 252.051 445.794 232.769 466.886C215.022 486.3 185.813 493.741 164.238 476.094C143.748 459.334 139.049 427.314 139.308 402.115C139.37 401.779 145.64 412.23 146.316 413.239C149.006 417.253 151.423 419.64 155.274 422.451C163.295 428.307 158.504 420.149 157.147 417.15C145.091 390.497 146.581 371.007 159.779 344.679C180.869 302.606 197.65 284.378 191.031 232.792V232.793ZM158.026 422.24C149.17 418.958 140.387 398.962 138.684 399.014C134.933 403.049 141.055 437.523 143.041 444.178C146.651 456.278 152.577 467.774 162.023 476.133C183.673 495.292 214.101 488.627 232.889 468.872C253.19 447.526 255.82 418.082 246.292 390.807C241.788 377.915 235.341 367.905 230.292 355.791C224.075 340.878 224.664 326.07 225.682 310.243C216.998 315.484 209.297 326.107 207.625 336.371C205.486 349.507 209.793 361.921 213.021 374.347C173.068 343.971 222.474 282.294 200.742 242.63C199.974 241.228 190.035 225.626 189.599 232.817C189.39 236.27 190.795 241.298 190.917 245.261C191.057 249.819 191.198 254.168 190.974 258.736C189.404 290.719 175.975 311.152 161.615 337.993C144.689 369.633 142.269 389.216 158.026 422.24V422.24Z" fill="#FEFEFE"/>
<path fill-rule="evenodd" clip-rule="evenodd" d="M193.66 426.217C195.492 425.188 207.96 444.475 194.367 445.249C189.051 445.553 186.318 441.378 187.316 436.273C187.831 433.64 191.538 427.409 193.66 426.217ZM192.229 398.745C197.231 397.542 201.214 401.154 200.616 406.366C200.215 409.869 196.992 414.294 194.832 417.003C193.466 418.717 192.17 416.111 190.973 414.572C189.773 413.03 188.583 411.207 187.862 409.373C186.098 404.89 187.219 399.95 192.229 398.745ZM191.238 392.74C180.326 394.492 178.174 407.611 185.337 416.632C187.14 418.902 190.794 421.175 188.616 423.51C183.686 428.796 180.027 433.524 181.493 441.451C184.422 457.301 209.538 453.074 206.342 435.899C204.59 426.486 196.044 423.723 198.888 420.333C203.359 415.006 207.693 410.436 206.384 402.693C205.114 395.176 198.217 391.619 191.238 392.74Z" fill="#FEFEFE"/>
<path fill-rule="evenodd" clip-rule="evenodd" d="M193.634 371.596C197.293 374.373 206.847 385.913 210.17 390.031C215.272 396.352 215.215 393.634 214.997 402.911C214.861 408.715 215.017 414.761 215.017 420.595C215.017 426.522 214.911 432.538 214.984 438.451C215.103 448.034 215.841 444.977 210.449 451.632C208.761 453.715 195.04 469.88 194.093 470.066C192.666 470.347 179.438 454.327 177.636 452.1C172.608 445.892 172.456 448.375 172.704 439.21C172.861 433.425 172.691 427.347 172.691 421.527C172.691 415.6 172.795 409.587 172.723 403.674C172.607 394.075 171.844 397.057 177.26 390.38C182.283 384.189 188.232 377.466 193.634 371.596H193.634ZM217.777 447.793C218.283 446.338 217.907 413.025 217.915 408.471C217.949 389.986 217.814 394.308 206.316 381.13C203.482 377.883 199.769 374.04 197.247 370.68C192.653 364.558 192.274 368.976 188.127 373.389C185.67 376.004 170.944 392.476 170.245 394.38C169.265 397.051 169.796 427.979 169.787 433.464C169.753 452.128 169.895 447.63 181.407 460.905C184.237 464.17 187.953 467.994 190.469 471.365C195.031 477.476 195.607 472.812 199.663 468.523C201.145 466.956 217.746 447.883 217.778 447.793H217.777Z" fill="#FEFEFE"/>
<path fill-rule="evenodd" clip-rule="evenodd" d="M74.2058 196.005L69.3801 192.917C68.0443 198.299 74.2011 202.619 76.8931 206.271C78.5056 208.458 79.5233 211.028 79.9897 213.725C80.6246 217.397 79.738 221.021 80.0766 223.493C82.6391 223.715 91.8249 208.598 86.8496 197.728C84.9287 193.532 82.3562 190.653 79.5826 187.114C78.3101 185.49 76.9633 183.705 75.9514 181.902C74.9103 180.047 74.3295 176.608 73.3415 175.5C71.7077 176.782 69.6724 183.599 69.8216 186.136C70.1076 191 74.0456 194.501 74.2068 196.005H74.2058Z" fill="#EB3237" stroke="#0D0000" stroke-width="0.05556" stroke-miterlimit="2.61313"/>
<path fill-rule="evenodd" clip-rule="evenodd" d="M321.436 192.77L316.992 196.524L316.616 196.031C317.867 192.579 320.671 191.463 321.059 186.35C321.391 181.976 319.449 179.232 317.694 175.584C317.202 176.007 314.642 182.618 312.988 184.904C311.016 187.629 308.704 190.143 306.808 192.915C301.812 200.22 301.353 206.741 304.65 215.039C305.331 216.753 308.627 223.01 310.354 223.349C310.388 223.356 311.038 212.653 311.511 211.15C313.779 203.954 322.822 199.971 321.435 192.77H321.436Z" fill="#EB3237" stroke="#0D0000" stroke-width="0.05556" stroke-miterlimit="2.61313"/>
</svg>
